# xmcd
#
# Track frame offsets:
#	150
#	10731
#	21433
#	33089
#	46858
#	58142
#	73121
#	86295
#	98858
#	110568
#	122380
#	134946
#	148688
#	162294
#	174518
#	189823
#	202931
#	216429
#	230708
#	244539
#	259422
#	271994
#	286584
#	299468
#	314577
#
# Disc length: 4393 seconds
#
# Revision: 0
# Processed by: cddbd v1.5.1PL2 Copyright (c) Steve Scherf et al.
# Submitted via: dBpowerAMP V4.0
#
DISCID=72112719
DTITLE=Huambaly - Los 100 Exitos Inolvidables
DYEAR=2006
DGENRE=Latin
TTITLE0=Que me digan feo
TTITLE1=Rapsodia Hungara
TTITLE2=Ritmo de Chunga
TTITLE3=Rock del Mono
TTITLE4=Romanza en Fa
TTITLE5=Sabrosito asi
TTITLE6=Saca la botella
TTITLE7=Serenata en Cha Cha Cha
TTITLE8=Serenata Jazz
TTITLE9=Silbando Cha Cha Cha
TTITLE10=Sixto, el caramelero
TTITLE11=Solo estoy
TTITLE12=Solo quiero un Cha Cha Cha
TTITLE13=Sombras al Atardecer
TTITLE14=Somos
TTITLE15=Suavecito
TTITLE16=Swingbaly
TTITLE17=Tengo una esperancita
TTITLE18=Todo en ti habla de amor
TTITLE19=Triana
TTITLE20=Tristeza
TTITLE21=Ven Morena
TTITLE22=Verano (Summertime)
TTITLE23=Virgen de la Macarena
TTITLE24=Yo bailo mi Cha Cha Cha
EXTD=EMI Music Chile/Radio Corazón FM, 363711-2\nLos 100 Exitos inolvidales de la Huambaly\nLa más importante Orquesta de los años 50
EXTT0=
EXTT1=
EXTT2=
EXTT3=
EXTT4=
EXTT5=
EXTT6=
EXTT7=
EXTT8=
EXTT9=
EXTT10=
EXTT11=
EXTT12=
EXTT13=
EXTT14=
EXTT15=
EXTT16=
EXTT17=
EXTT18=
EXTT19=
EXTT20=
EXTT21=
EXTT22=
EXTT23=
EXTT24=
PLAYORDER=
